HIERARCHY
ROOT Root
{
  OFFSET 0.0 0.0 0.0
  CHANNELS 6 Xposition Yposition Zposition Zrotation Yrotation Xrotation
  JOINT Hips
  {
    OFFSET 0.0 100.0 0.0
    CHANNELS 6 Xposition Yposition Zposition Zrotation Yrotation Xrotation
    JOINT Spine1
    {
      OFFSET -0.013727 5.003763 -0.053727
      CHANNELS 3 Zrotation Yrotation Xrotation
      JOINT Spine2
      {
        OFFSET -0.0 7.125301 -0.029825
        CHANNELS 3 Zrotation Yrotation Xrotation
        JOINT Chest
        {
          OFFSET -1e-06 7.550063 -0.815971
          CHANNELS 3 Zrotation Yrotation Xrotation
          JOINT Neck1
          {
            OFFSET -0.181677 26.311295 -0.553348
            CHANNELS 3 Zrotation Yrotation Xrotation
            JOINT Neck2
            {
              OFFSET -3e-06 7.709397 2.302585
              CHANNELS 3 Zrotation Yrotation Xrotation
              JOINT Head
              {
                OFFSET -5e-06 6.128916 1.953709
                CHANNELS 3 Zrotation Yrotation Xrotation
                JOINT HeadEnd
                {
                  OFFSET 0.003598 16.065403 -1.835379
                  CHANNELS 3 Zrotation Yrotation Xrotation
                }
                JOINT Jaw
                {
                  OFFSET 0.002637 0.475592 3.094941
                  CHANNELS 3 Zrotation Yrotation Xrotation
                }
                JOINT LeftEye
                {
                  OFFSET 3.206381 5.380205 7.586883
                  CHANNELS 3 Zrotation Yrotation Xrotation
                }
                JOINT RightEye
                {
                  OFFSET -3.22244 5.361869 7.558234
                  CHANNELS 3 Zrotation Yrotation Xrotation
                }
              }
            }
          }
          JOINT LeftShoulder
          {
            OFFSET 1.621652 23.237164 5.113413
            CHANNELS 3 Zrotation Yrotation Xrotation
            JOINT LeftArm
            {
              OFFSET 14.919846 2e-06 -5.502326
              CHANNELS 3 Zrotation Yrotation Xrotation
              JOINT LeftForeArm
              {
                OFFSET 28.739307 0.0 -0.002588
                CHANNELS 3 Zrotation Yrotation Xrotation
                JOINT LeftHand
                {
                  OFFSET 27.093981 -1e-06 0.002609
                  CHANNELS 3 Zrotation Yrotation Xrotation
                  JOINT LeftHandThumb1
                  {
                    OFFSET 2.276482 -1.392045 3.191413
                    CHANNELS 3 Zrotation Yrotation Xrotation
                    JOINT LeftHandThumb2
                    {
                      OFFSET 4.012836 -1.828127 1.641654
                      CHANNELS 3 Zrotation Yrotation Xrotation
                      JOINT LeftHandThumb3
                      {
                        OFFSET 2.798515 0.0 -3e-06
                        CHANNELS 3 Zrotation Yrotation Xrotation
                        JOINT LeftHandThumbEnd
                        {
                          OFFSET 3.180793 -4e-06 4e-06
                          CHANNELS 3 Zrotation Yrotation Xrotation
                        }
                      }
                    }
                  }
                  JOINT LeftHandIndex1
                  {
                    OFFSET 3.247555 -0.531998 2.296169
                    CHANNELS 3 Zrotation Yrotation Xrotation
                    JOINT LeftHandIndex2
                    {
                      OFFSET 6.364578 0.01206 0.1786
                      CHANNELS 3 Zrotation Yrotation Xrotation
                      JOINT LeftHandIndex3
                      {
                        OFFSET 3.662364 0.0 0.0
                        CHANNELS 3 Zrotation Yrotation Xrotation
                        JOINT LeftHandIndex4
                        {
                          OFFSET 2.329242 4e-06 4e-06
                          CHANNELS 3 Zrotation Yrotation Xrotation
                          JOINT LeftHandIndexEnd
                          {
                            OFFSET 2.759615 -0.180537 -0.113024
                            CHANNELS 3 Zrotation Yrotation Xrotation
                          }
                        }
                      }
                    }
                  }
                  JOINT LeftHandMiddle1
                  {
                    OFFSET 3.163495 0.240981 1.000332
                    CHANNELS 3 Zrotation Yrotation Xrotation
                    JOINT LeftHandMiddle2
                    {
                      OFFSET 6.19078 -0.259278 -1.002548
                      CHANNELS 3 Zrotation Yrotation Xrotation
                      JOINT LeftHandMiddle3
                      {
                        OFFSET 4.35652 -4e-06 -1e-06
                        CHANNELS 3 Zrotation Yrotation Xrotation
                        JOINT LeftHandMiddle4
                        {
                          OFFSET 2.996877 -8e-06 0.0
                          CHANNELS 3 Zrotation Yrotation Xrotation
                          JOINT LeftHandMiddleEnd
                          {
                            OFFSET 2.304287 -0.294569 -0.031741
                            CHANNELS 3 Zrotation Yrotation Xrotation
                          }
                        }
                      }
                    }
                  }
                  JOINT LeftHandRing1
                  {
                    OFFSET 2.882643 -0.053652 -0.322543
                    CHANNELS 3 Zrotation Yrotation Xrotation
                    JOINT LeftHandRing2
                    {
                      OFFSET 5.854541 -0.486202 -1.373841
                      CHANNELS 3 Zrotation Yrotation Xrotation
                      JOINT LeftHandRing3
                      {
                        OFFSET 4.350578 0.0 3e-06
                        CHANNELS 3 Zrotation Yrotation Xrotation
                        JOINT LeftHandRing4
                        {
                          OFFSET 2.651321 7e-06 2e-06
                          CHANNELS 3 Zrotation Yrotation Xrotation
                          JOINT LeftHandRingEnd
                          {
                            OFFSET 1.936105 0.077687 -7.1e-05
                            CHANNELS 3 Zrotation Yrotation Xrotation
                          }
                        }
                      }
                    }
                  }
                  JOINT LeftHandPinky1
                  {
                    OFFSET 2.8655 -0.310005 -1.600378
                    CHANNELS 3 Zrotation Yrotation Xrotation
                    JOINT LeftHandPinky2
                    {
                      OFFSET 5.087849 -1.331141 -1.77123
                      CHANNELS 3 Zrotation Yrotation Xrotation
                      JOINT LeftHandPinky3
                      {
                        OFFSET 3.070974 4e-06 0.0
                        CHANNELS 3 Zrotation Yrotation Xrotation
                        JOINT LeftHandPinky4
                        {
                          OFFSET 1.549672 0.0 1e-06
                          CHANNELS 3 Zrotation Yrotation Xrotation
                          JOINT LeftHandPinkyEnd
                          {
                            OFFSET 1.944893 -0.157802 0.057219
                            CHANNELS 3 Zrotation Yrotation Xrotation
                          }
                        }
                      }
                    }
                  }
                }
              }
            }
          }
          JOINT RightShoulder
          {
            OFFSET -1.380118 23.180309 5.214158
            CHANNELS 3 Zrotation Yrotation Xrotation
            JOINT RightArm
            {
              OFFSET -15.037196 1.2e-05 -5.545604
              CHANNELS 3 Zrotation Yrotation Xrotation
              JOINT RightForeArm
              {
                OFFSET -28.736639 2e-06 -0.002597
                CHANNELS 3 Zrotation Yrotation Xrotation
                JOINT RightHand
                {
                  OFFSET -27.133619 -0.0 0.002613
                  CHANNELS 3 Zrotation Yrotation Xrotation
                  JOINT RightHandThumb1
                  {
                    OFFSET -2.274032 -1.383988 3.163127
                    CHANNELS 3 Zrotation Yrotation Xrotation
                    JOINT RightHandThumb2
                    {
                      OFFSET -4.011429 -1.827466 1.640914
                      CHANNELS 3 Zrotation Yrotation Xrotation
                      JOINT RightHandThumb3
                      {
                        OFFSET -2.794935 -4e-06 -3e-06
                        CHANNELS 3 Zrotation Yrotation Xrotation
                        JOINT RightHandThumbEnd
                        {
                          OFFSET -3.183852 4e-06 1e-06
                          CHANNELS 3 Zrotation Yrotation Xrotation
                        }
                      }
                    }
                  }
                  JOINT RightHandIndex1
                  {
                    OFFSET -3.253266 -0.520057 2.282866
                    CHANNELS 3 Zrotation Yrotation Xrotation
                    JOINT RightHandIndex2
                    {
                      OFFSET -6.341917 0.012471 0.178266
                      CHANNELS 3 Zrotation Yrotation Xrotation
                      JOINT RightHandIndex3
                      {
                        OFFSET -3.654871 -8e-06 -0.0
                        CHANNELS 3 Zrotation Yrotation Xrotation
                        JOINT RightHandIndex4
                        {
                          OFFSET -2.327586 0.0 1e-06
                          CHANNELS 3 Zrotation Yrotation Xrotation
                          JOINT RightHandIndexEnd
                          {
                            OFFSET -2.76179 -0.180656 -0.113078
                            CHANNELS 3 Zrotation Yrotation Xrotation
                          }
                        }
                      }
                    }
                  }
                  JOINT RightHandMiddle1
                  {
                    OFFSET -3.168106 0.246593 1.00103
                    CHANNELS 3 Zrotation Yrotation Xrotation
                    JOINT RightHandMiddle2
                    {
                      OFFSET -6.180828 -0.258836 -1.000895
                      CHANNELS 3 Zrotation Yrotation Xrotation
                      JOINT RightHandMiddle3
                      {
                        OFFSET -4.348901 0.0 -0.0
                        CHANNELS 3 Zrotation Yrotation Xrotation
                        JOINT RightHandMiddle4
                        {
                          OFFSET -3.00024 -4e-06 -2e-06
                          CHANNELS 3 Zrotation Yrotation Xrotation
                          JOINT RightHandMiddleEnd
                          {
                            OFFSET -2.30252 -0.29437 -0.031706
                            CHANNELS 3 Zrotation Yrotation Xrotation
                          }
                        }
                      }
                    }
                  }
                  JOINT RightHandRing1
                  {
                    OFFSET -2.88569 -0.067952 -0.308858
                    CHANNELS 3 Zrotation Yrotation Xrotation
                    JOINT RightHandRing2
                    {
                      OFFSET -5.854198 -0.48613 -1.373731
                      CHANNELS 3 Zrotation Yrotation Xrotation
                      JOINT RightHandRing3
                      {
                        OFFSET -4.33881 -4e-06 -0.0
                        CHANNELS 3 Zrotation Yrotation Xrotation
                        JOINT RightHandRing4
                        {
                          OFFSET -2.654903 -4e-06 4e-06
                          CHANNELS 3 Zrotation Yrotation Xrotation
                          JOINT RightHandRingEnd
                          {
                            OFFSET -1.933568 0.077527 -5.2e-05
                            CHANNELS 3 Zrotation Yrotation Xrotation
                          }
                        }
                      }
                    }
                  }
                  JOINT RightHandPinky1
                  {
                    OFFSET -2.866425 -0.342796 -1.584145
                    CHANNELS 3 Zrotation Yrotation Xrotation
                    JOINT RightHandPinky2
                    {
                      OFFSET -5.091371 -1.332055 -1.772385
                      CHANNELS 3 Zrotation Yrotation Xrotation
                      JOINT RightHandPinky3
                      {
                        OFFSET -3.062664 -4e-06 1e-06
                        CHANNELS 3 Zrotation Yrotation Xrotation
                        JOINT RightHandPinky4
                        {
                          OFFSET -1.546529 4e-06 -2e-06
                          CHANNELS 3 Zrotation Yrotation Xrotation
                          JOINT RightHandPinkyEnd
                          {
                            OFFSET -1.945119 -0.157718 0.057211
                            CHANNELS 3 Zrotation Yrotation Xrotation
                          }
                        }
                      }
                    }
                  }
                }
              }
            }
          }
        }
      }
    }
    JOINT LeftLeg
    {
      OFFSET 10.043214 -8.434526 2.595655
      CHANNELS 3 Zrotation Yrotation Xrotation
      JOINT LeftShin
      {
        OFFSET -1e-06 -43.221752 -0.802913
        CHANNELS 3 Zrotation Yrotation Xrotation
        JOINT LeftFoot
        {
          OFFSET 1e-06 -42.155094 -3.481523
          CHANNELS 3 Zrotation Yrotation Xrotation
          JOINT LeftToeBase
          {
            OFFSET 0.0 -5.059472 13.231529
            CHANNELS 3 Zrotation Yrotation Xrotation
            JOINT LeftToeEnd
            {
              OFFSET -0.009607 -1.647619 6.513017
              CHANNELS 3 Zrotation Yrotation Xrotation
            }
          }
        }
      }
    }
    JOINT RightLeg
    {
      OFFSET -10.047278 -8.29526 2.620317
      CHANNELS 3 Zrotation Yrotation Xrotation
      JOINT RightShin
      {
        OFFSET 1e-06 -43.362206 -0.805556
        CHANNELS 3 Zrotation Yrotation Xrotation
        JOINT RightFoot
        {
          OFFSET 2e-06 -42.117393 -3.478398
          CHANNELS 3 Zrotation Yrotation Xrotation
          JOINT RightToeBase
          {
            OFFSET -0.0 -5.079609 13.284196
            CHANNELS 3 Zrotation Yrotation Xrotation
            JOINT RightToeEnd
            {
              OFFSET 0.009532 -1.634378 6.460591
              CHANNELS 3 Zrotation Yrotation Xrotation
            }
          }
        }
      }
    }
  }
}
MOTION
Frames: 4
Frame Time: 0.03333333333333333
0.0 0.0 0.0 0.0 -0.0 0.0 0.312162 48.45509 95.196495 -2.338401 3.022586 50.174507 4.848262 -1.241156 18.30757 1.865227 -2.473383 1.838526 6.797963 -4.633017 12.333436 -0.443034 1.219867 -11.214536 0.592868 2.615048 -3.559251 0.061057 3.153951 -9.389294 7.7e-05 -2.3e-05 5e-06 -0.024892 0.023704 -0.165264 0.60926 -3.698236 -10.782202 -0.661959 3.752372 -10.755517 16.022993 -28.340919 4.021332 -1.133717 -29.265141 -46.656563 -1.90077 -28.073359 0.762895 38.512054 -8.803203 -1.472595 -5.882109 9.861286 0.702588 -10.936873 -0.360576 7.156206 -1e-06 8.774824 -3e-06 -15.973106 18.903053 6.31764 -1.844032 2.498505 -2.507278 -10.163601 4.678945 4.621109 -20.976027 -3e-06 1e-06 -21.226288 2.451696 -3.594002 -0.0 -6e-06 -0.0 -1.362681 2.240798 -0.746323 -21.334917 0.584909 3.008323 -13.821219 -3e-06 1e-06 -23.887178 -0.249079 -0.839484 -60.179752 2.968624 -2.214058 -0.294025 1.679687 0.833255 -14.21821 0.093214 1.300581 -34.212048 -0.287565 0.96717 -20.033215 0.964537 1.212844 0.0 0.0 -0.0 -3.440389 0.788233 0.501656 -15.928189 -3.16731 2.999707 -6.338826 -1e-06 1e-06 -18.123451 3.648181 -4.905673 -5e-06 -0.0 -2e-06 -5.556813 24.467234 4.886271 33.294827 60.0341 -6.375416 -0.183913 19.04385 0.19244 -72.477058 21.680004 5.85094 2.243541 -5.25504 -3.18016 14.282898 -0.826593 6.952507 0.0 -12.69061 -2e-06 16.897848 -18.265921 2.355194 1.665666 -1.955923 -2.878299 4.727802 -4.170588 4.993925 11.020534 3e-06 -1e-06 12.109058 -3.735718 -2.866785 0.0 0.0 -1e-06 1.291986 -1.928551 -1.49809 14.800138 0.567469 3.865611 14.242579 -1.34174 -6.660662 19.631975 0.143923 -0.648243 50.304955 -0.792931 -6.546309 0.353028 -1.51115 -0.03194 20.222803 3.684313 2.316633 18.787285 4e-06 0.0 10.751634 -0.479869 1.397907 -0.0 -0.0 0.0 3.273808 0.305947 -0.58011 21.486826 11.830381 2.26614 8.16293 2e-06 -0.0 18.399096 -3.798987 -4.940578 2e-06 1e-06 -1e-06 6.953685 -0.36577 -37.323948 -0.20746 -0.999328 91.56897 2.317011 -16.915859 2.318846 1.304717 -1.370525 -9.213255 0.0 -0.0 2e-06 2.664794 -7.063175 -79.926987 -0.035496 -0.434323 128.280457 13.748158 13.316614 28.630682 -1.368443 1.056396 0.459523 0.0 -0.0 -4e-06 
0.0 0.0 0.0 0.0 -0.0 0.0 0.117184 47.882347 98.072731 -0.722272 4.942987 49.863659 5.123356 -1.698307 17.922951 1.84055 -3.030873 1.731127 7.462538 -5.184532 12.374058 0.042476 1.209846 -10.843504 0.474098 2.086426 -3.613407 -0.131572 2.58919 -9.872407 7.7e-05 -2.2e-05 6e-06 0.013593 -0.006651 -0.17246 0.66108 -3.724585 -10.826549 -0.63311 3.717666 -10.797247 17.289732 -27.754044 3.856222 -2.584761 -32.79686 -45.524448 -1.913326 -27.186533 0.591621 39.967659 -9.282648 -0.896664 -5.882113 9.861292 0.702588 -10.936885 -0.360575 7.156213 -3e-06 8.77483 -3e-06 -16.158743 18.875401 6.240187 -1.844036 2.498507 -2.50728 -10.163607 4.678947 4.621111 -20.976044 -1e-06 3e-06 -21.226307 2.4517 -3.594003 0.0 -6e-06 -1e-06 -1.362683 2.240799 -0.746325 -21.334934 0.584911 3.008327 -13.821227 -2e-06 2e-06 -23.887192 -0.249077 -0.839484 -60.346394 2.987444 -2.181543 -0.294025 1.679688 0.833256 -14.218224 0.093216 1.300582 -34.212078 -0.287561 0.967172 -20.033232 0.96454 1.212845 -0.0 0.0 0.0 -3.440392 0.788234 0.501656 -15.928203 -3.16731 2.999712 -6.338832 -1e-06 1e-06 -18.123466 3.648185 -4.905675 -4e-06 0.0 -2e-06 -2.764676 24.073393 6.075063 35.84856 57.233234 -5.210448 -0.091803 20.537891 0.378798 -73.574791 24.132177 6.224036 2.243544 -5.255041 -3.18016 14.282902 -0.826594 6.952508 -1e-06 -12.690613 -2e-06 16.809267 -18.278559 2.337876 1.665667 -1.955924 -2.878301 4.727802 -4.170591 4.993926 11.020535 4e-06 -1e-06 12.109062 -3.735721 -2.866786 0.0 0.0 -0.0 1.291986 -1.928551 -1.49809 14.800142 0.567467 3.865611 14.242584 -1.34174 -6.660664 19.631985 0.143923 -0.648246 50.447605 -0.769697 -6.474166 0.353028 -1.511152 -0.031939 20.222805 3.684311 2.316633 18.787292 3e-06 0.0 10.751638 -0.47987 1.397906 0.0 0.0 0.0 3.27381 0.305946 -0.580111 21.486832 11.83038 2.266136 8.162933 2e-06 -1e-06 18.399096 -3.798986 -4.940581 2e-06 0.0 -1e-06 7.314785 -1.725907 -33.615849 -0.136528 -1.46547 87.10405 1.444767 -17.090691 4.273116 1.275165 -1.375114 -8.918364 -0.0 0.0 2e-06 3.137355 -8.389414 -79.824745 -0.013353 -0.540208 126.157082 15.658702 13.786756 30.846039 -1.313787 0.962426 -0.741775 -1e-06 -0.0 -3e-06 
0.0 0.0 0.0 0.0 -0.0 0.0 -0.191465 47.257252 101.063622 0.30549 6.530745 50.111938 5.112608 -1.877789 17.458214 1.941796 -3.202764 1.611841 8.052054 -5.31226 11.981023 0.366022 1.502923 -10.778717 0.123174 1.414943 -3.630756 0.009078 1.892849 -10.15243 7.6e-05 -2.2e-05 6e-06 -0.025045 0.015816 -0.154732 0.668604 -3.709472 -10.864289 -0.717365 3.746746 -10.827426 18.643898 -26.378273 3.516488 -5.580872 -37.528568 -42.746777 -1.422212 -26.767315 0.411793 42.918747 -9.625041 -0.250586 -5.882109 9.86129 0.702588 -10.936877 -0.360576 7.156208 -3e-06 8.774829 -3e-06 -16.086632 18.887764 6.295856 -1.844034 2.498506 -2.507279 -10.163604 4.678946 4.621109 -20.976032 -3e-06 2e-06 -21.226295 2.451698 -3.594002 1e-06 -6e-06 0.0 -1.362681 2.240799 -0.746324 -21.334927 0.584909 3.008323 -13.821221 -3e-06 2e-06 -23.887184 -0.249078 -0.839484 -60.457722 3.036294 -2.178905 -0.294025 1.679688 0.833255 -14.218214 0.093215 1.300581 -34.212059 -0.287564 0.96717 -20.033224 0.964536 1.212844 0.0 0.0 -0.0 -3.44039 0.788233 0.501655 -15.928189 -3.167311 2.999708 -6.338828 -1e-06 1e-06 -18.123453 3.648183 -4.905674 -5e-06 0.0 -2e-06 -0.047661 24.17091 7.132861 37.992081 53.490711 -4.81843 0.021231 22.044136 0.580326 -74.758263 26.394709 5.719487 2.243541 -5.255037 -3.180158 14.282887 -0.826593 6.952505 -3e-06 -12.690603 0.0 16.890497 -18.347559 2.279286 1.665666 -1.955922 -2.878299 4.727798 -4.170586 4.993924 11.020525 3e-06 1e-06 12.109052 -3.735715 -2.866782 1e-06 0.0 -1e-06 1.291985 -1.928549 -1.498089 14.800129 0.567468 3.865611 14.242569 -1.341737 -6.660656 19.631964 0.143925 -0.648244 50.715969 -0.75293 -6.334952 0.353029 -1.511149 -0.03194 20.222788 3.68431 2.316635 18.78727 3e-06 2e-06 10.751625 -0.479869 1.397909 -0.0 0.0 1e-06 3.273805 0.305948 -0.58011 21.486814 11.830374 2.266138 8.162926 2e-06 -0.0 18.39908 -3.798985 -4.940574 4e-06 -0.0 -1e-06 8.109903 -2.103944 -30.231661 -0.079375 -2.055572 81.905136 0.026555 -18.597448 7.923244 1.208225 -1.400336 -7.970481 0.0 -1e-06 2e-06 3.564964 -9.011946 -77.953957 0.017222 -0.571053 124.822556 17.701803 13.414783 32.210007 -1.375715 0.875358 -0.70608 -1e-06 -0.0 -4e-06 
0.0 0.0 0.0 0.0 -0.0 0.0 -0.493906 46.895615 104.151276 -0.28534 7.352424 50.89312 5.137638 -1.622122 17.108549 2.026935 -2.866825 1.526183 8.595005 -4.705195 11.402831 -0.043999 1.754849 -11.408638 -0.082575 0.889645 -3.63074 0.487195 1.300235 -10.220007 7.7e-05 -2.2e-05 7e-06 -0.085351 0.056918 -0.142457 0.650083 -3.665198 -10.877873 -0.821831 3.78705 -10.822953 19.578804 -24.465849 3.02527 -9.132197 -42.328503 -39.0826 -0.982448 -26.360806 0.344386 47.568283 -9.900312 0.264012 -5.882107 9.861282 0.702589 -10.936872 -0.360574 7.156202 1e-06 8.774822 -1e-06 -15.93644 18.761206 6.282799 -1.844032 2.498503 -2.507277 -10.163599 4.678944 4.621106 -20.976023 -3e-06 1e-06 -21.226286 2.451697 -3.593999 1e-06 -6e-06 -1e-06 -1.362681 2.240798 -0.746323 -21.334913 0.58491 3.008321 -13.821213 -2e-06 1e-06 -23.887173 -0.249079 -0.839484 -60.281631 2.903068 -2.222998 -0.294025 1.679687 0.833256 -14.218207 0.093215 1.30058 -34.212051 -0.287564 0.967168 -20.033213 0.964536 1.212842 -0.0 1e-06 0.0 -3.440388 0.788233 0.501656 -15.928185 -3.167308 2.999705 -6.338824 -2e-06 1e-06 -18.123444 3.648182 -4.90567 -4e-06 0.0 -2e-06 2.002444 25.04417 7.764762 39.588211 49.083664 -6.227131 0.525592 23.812359 0.933362 -75.623306 28.959175 4.790495 2.243542 -5.255037 -3.180157 14.28289 -0.826594 6.9525 -1e-06 -12.690603 -3e-06 16.962379 -18.415005 2.199287 1.665667 -1.955922 -2.878299 4.727798 -4.170586 4.99392 11.020524 3e-06 -2e-06 12.109052 -3.735716 -2.866785 0.0 0.0 -1e-06 1.291986 -1.928548 -1.498088 14.800125 0.567469 3.865606 14.242573 -1.341739 -6.660659 19.631968 0.143925 -0.648245 50.957119 -0.689551 -6.183931 0.353028 -1.511151 -0.031941 20.222786 3.684308 2.316629 18.78727 4e-06 -4e-06 10.751627 -0.479868 1.397905 -1e-06 -0.0 1e-06 3.273806 0.305947 -0.580111 21.486813 11.830373 2.266135 8.162923 2e-06 -2e-06 18.39908 -3.798983 -4.940578 4e-06 -0.0 -0.0 9.62997 -0.825104 -27.689522 -0.066658 -2.680538 76.524788 -1.735701 -20.413868 12.673531 1.157279 -1.438033 -7.011392 -0.0 -1e-06 3e-06 4.83986 -7.826756 -75.843727 0.020064 -0.470897 123.498253 18.995283 12.63892 32.369667 -1.495008 0.79513 0.44687 0.0 -1e-06 -3e-06 
